<?xml version="1.0" encoding="utf-8"?>
<!-- Generator: Adobe Illustrator 23.0.3, SVG Export Plug-In . SVG Version: 6.00 Build 0)  -->
<svg version="1.1" xmlns="http://www.w3.org/2000/svg" xmlns:xlink="http://www.w3.org/1999/xlink" x="0px" y="0px"
	 viewBox="0 0 500 500" style="enable-background:new 0 0 500 500;" xml:space="preserve">
<style type="text/css">
	.st0{fill:#EBEBEB;}
	.st1{fill:#F5F5F5;}
	.st2{fill:#F0F0F0;}
	.st3{fill:#E6E6E6;}
	.st4{display:none;}
	.st5{display:inline;}
	.st6{fill:#407BFF;}
	.st7{opacity:0.9;fill:#FFFFFF;}
	.st8{fill:#FAF38E;}
	.st9{opacity:0.3;}
	.st10{opacity:0.7;fill:#FFFFFF;}
	.st11{opacity:0.2;fill:#407BFF;}
	.st12{opacity:0.3;fill:#FFFFFF;}
	.st13{opacity:0.4;fill:#407BFF;}
	.st14{fill:#EAEB93;}
	.st15{fill:#B9CFFF;}
	.st16{opacity:0.2;fill:#FFFFFF;}
	.st17{opacity:0.3;fill:#407BFF;}
	.st18{opacity:0.8;fill:#FFFFFF;}
	.st19{fill:#263238;}
	.st20{fill:#FFFFFF;}
	.st21{opacity:0.5;fill:#FFFFFF;}
	.st22{opacity:0.6;fill:#407BFF;}
	.st23{opacity:0.5;fill:#407BFF;}
	.st24{fill:#36B4EE;}
	.st25{fill:#83A9FF;}
	.st26{opacity:0;fill:#FFFFFF;}
	.st27{opacity:0.2;fill:#FAF38E;}
</style>
<g id="Background_Complete">
	<g>
		<g>
			<polygon class="st0" points="113.05,168.25 114.67,171.52 118.29,172.05 115.67,174.6 116.29,178.2 113.05,176.5 109.82,178.2 
				110.44,174.6 107.82,172.05 111.44,171.52 			"/>
			<polygon class="st1" points="436.7,322.48 438.32,325.76 441.94,326.28 439.32,328.84 439.94,332.44 436.7,330.74 433.47,332.44 
				434.09,328.84 431.47,326.28 435.09,325.76 			"/>
			<polygon class="st1" points="372.6,417.57 374.22,420.84 377.83,421.37 375.22,423.92 375.83,427.52 372.6,425.82 369.37,427.52 
				369.98,423.92 367.37,421.37 370.98,420.84 			"/>
			<path class="st0" d="M225.94,110.15l0.6,1.22l1.34,0.19c0.34,0.05,0.47,0.46,0.23,0.7l-0.97,0.95l0.23,1.34
				c0.06,0.33-0.29,0.59-0.59,0.43l-1.2-0.63l-1.2,0.63c-0.3,0.16-0.65-0.1-0.59-0.43l0.23-1.34l-0.97-0.95
				c-0.24-0.24-0.11-0.65,0.23-0.7l1.34-0.19l0.6-1.22C225.36,109.85,225.79,109.85,225.94,110.15z"/>
			<path class="st1" d="M60.78,402.01l0.6,1.22l1.34,0.2c0.33,0.05,0.47,0.46,0.23,0.7l-0.97,0.95l0.23,1.34
				c0.06,0.33-0.29,0.59-0.59,0.43l-1.2-0.63l-1.2,0.63c-0.3,0.16-0.65-0.1-0.59-0.43l0.23-1.34l-0.97-0.95
				c-0.24-0.24-0.11-0.65,0.23-0.7l1.34-0.2l0.6-1.22C60.19,401.7,60.63,401.7,60.78,402.01z"/>
			<path class="st0" d="M87.75,97.3l0.6,1.22l1.34,0.19c0.33,0.05,0.47,0.46,0.23,0.7l-0.97,0.95l0.23,1.34
				c0.06,0.33-0.29,0.59-0.59,0.43l-1.2-0.63l-1.2,0.63c-0.3,0.16-0.65-0.1-0.59-0.43l0.23-1.34l-0.97-0.95
				c-0.24-0.24-0.11-0.65,0.23-0.7l1.34-0.19l0.6-1.22C87.17,97,87.61,97,87.75,97.3z"/>
			<path class="st0" d="M86.13,338.32c0,0.73-0.59,1.33-1.33,1.33c-0.73,0-1.33-0.59-1.33-1.33c0-0.73,0.59-1.33,1.33-1.33
				C85.54,336.99,86.13,337.59,86.13,338.32z"/>
			<path class="st0" d="M275.67,171.89c0,0.73-0.59,1.33-1.33,1.33c-0.73,0-1.33-0.59-1.33-1.33c0-0.73,0.59-1.33,1.33-1.33
				C275.08,170.57,275.67,171.16,275.67,171.89z"/>
			<path class="st1" d="M206.71,98.4c0,0.73-0.59,1.33-1.33,1.33c-0.73,0-1.33-0.59-1.33-1.33c0-0.73,0.59-1.33,1.33-1.33
				C206.11,97.07,206.71,97.67,206.71,98.4z"/>
		</g>
		<g>
			
				<ellipse transform="matrix(0.9732 -0.2298 0.2298 0.9732 -89.8924 58.7029)" class="st2" cx="207.14" cy="415.38" rx="7.35" ry="7.35"/>
		</g>
		<path class="st3" d="M204.6,411.09c-1.56,0-3.01,0.5-4.19,1.36c-0.39,0.9-0.61,1.89-0.61,2.93c0,4.06,3.29,7.34,7.35,7.34
			c1.37,0,2.66-0.38,3.76-1.04c-0.01-0.01-0.01-0.01,0-0.01c0.55-1.02,0.86-2.18,0.86-3.42C211.77,414.3,208.56,411.09,204.6,411.09
			z"/>
	</g>
</g>
<g id="Background_Simple" class="st4">
	<g class="st5">
		<path class="st6" d="M104.69,145.88c-15.32,40.81-2.1,95.9,21.58,139c60.96,111.9,209.43,48.63,206.87-2.19
			c3.49-48.49-40.11-62.88-54.91-90.07C195.42,39.21,117.02,111.47,104.69,145.88z"/>
		<path class="st7" d="M104.69,145.88c-15.32,40.81-2.1,95.9,21.58,139c60.96,111.9,209.43,48.63,206.87-2.19
			c3.49-48.49-40.11-62.88-54.91-90.07C195.42,39.21,117.02,111.47,104.69,145.88z"/>
	</g>
</g>
<g id="_x34_04">
	<g>
		<path class="st8" d="M147.68,287.64H86.83v-27.47l60.85-72.34h29.12v73.9h15.09v25.92H176.8v22.47h-29.12V287.64z M147.68,261.73
			v-37.84l-32.16,37.84H147.68z"/>
		<path class="st8" d="M202.3,249.51c0-22.85,4.11-38.85,12.34-47.98c8.23-9.13,20.76-13.7,37.6-13.7c8.09,0,14.73,1,19.93,2.99
			c5.19,2,9.43,4.59,12.71,7.79c3.28,3.2,5.86,6.56,7.75,10.09c1.89,3.53,3.4,7.64,4.55,12.34c2.24,8.97,3.36,18.32,3.36,28.05
			c0,21.82-3.69,37.78-11.07,47.9c-7.38,10.12-20.09,15.17-38.14,15.17c-10.12,0-18.29-1.61-24.52-4.84
			c-6.23-3.23-11.35-7.95-15.34-14.19c-2.9-4.43-5.15-10.48-6.77-18.17C203.11,267.29,202.3,258.8,202.3,249.51z M235.44,249.59
			c0,15.31,1.35,25.77,4.06,31.37c2.71,5.6,6.63,8.41,11.77,8.41c3.39,0,6.33-1.19,8.82-3.57c2.49-2.38,4.32-6.14,5.5-11.28
			c1.18-5.14,1.76-13.15,1.76-24.03c0-15.96-1.35-26.69-4.06-32.19c-2.71-5.5-6.77-8.24-12.18-8.24c-5.52,0-9.51,2.8-11.97,8.41
			C236.67,224.07,235.44,234.45,235.44,249.59z"/>
		<path class="st8" d="M371.74,287.64h-60.85v-27.47l60.85-72.34h29.12v73.9h15.09v25.92h-15.09v22.47h-29.12V287.64z
			 M371.74,261.73v-37.84l-32.16,37.84H371.74z"/>
	</g>
</g>
<g id="Planets">
	<g>
		<g class="st9">
			<path class="st6" d="M200.95,145.62c0,1.03-0.84,1.87-1.87,1.87c-1.03,0-1.87-0.84-1.87-1.87c0-1.03,0.84-1.87,1.87-1.87
				C200.12,143.75,200.95,144.59,200.95,145.62z"/>
			<circle class="st6" cx="72.97" cy="216.13" r="1.32"/>
			<circle class="st6" cx="291.05" cy="408.33" r="1.89"/>
			<circle class="st6" cx="336.5" cy="332" r="1.32"/>
			<path class="st6" d="M424.17,95.62c0,0.73-0.59,1.32-1.32,1.32c-0.73,0-1.32-0.59-1.32-1.32c0-0.73,0.59-1.32,1.32-1.32
				C423.58,94.3,424.17,94.89,424.17,95.62z"/>
			<path class="st6" d="M172.75,68.96c0,0.73-0.59,1.32-1.32,1.32c-0.73,0-1.32-0.59-1.32-1.32s0.59-1.32,1.32-1.32
				C172.16,67.64,172.75,68.23,172.75,68.96z"/>
			<circle class="st6" cx="277.7" cy="136.94" r="1.32"/>
		</g>
		<g>
			<g>
				<circle class="st6" cx="141.23" cy="116.36" r="21.91"/>
				<circle class="st10" cx="141.23" cy="116.36" r="21.91"/>
			</g>
			<path class="st11" d="M133.68,99.83c-3.07,0-5.99,0.63-8.64,1.77c-3.55,3.89-5.72,9.08-5.72,14.76c0,12.1,9.81,21.9,21.9,21.9
				c3.08,0,6.02-0.63,8.68-1.78c0,0,0,0,0-0.01c3.53-3.89,5.68-9.06,5.68-14.73C155.6,109.64,145.79,99.83,133.68,99.83z"/>
			<path class="st11" d="M131.5,105.62c0,1.11-0.9,2-2,2c-1.11,0-2-0.9-2-2c0-1.11,0.9-2,2-2
				C130.61,103.62,131.5,104.52,131.5,105.62z"/>
			<path class="st11" d="M155.06,103.62c0,1.11-0.9,2-2,2c-1.11,0-2-0.9-2-2c0-1.11,0.9-2,2-2
				C154.17,101.62,155.06,102.51,155.06,103.62z"/>
			<path class="st11" d="M151.06,117.9c0,1.81-1.47,3.28-3.28,3.28c-1.81,0-3.28-1.47-3.28-3.28c0-1.81,1.47-3.28,3.28-3.28
				C149.59,114.62,151.06,116.09,151.06,117.9z"/>
			<path class="st11" d="M140.64,127.25c0,2.42-1.96,4.38-4.38,4.38c-2.42,0-4.38-1.96-4.38-4.38c0-2.42,1.96-4.38,4.38-4.38
				C138.68,122.87,140.64,124.83,140.64,127.25z"/>
		</g>
		<g>
			<g>
				
					<ellipse transform="matrix(0.2298 -0.9732 0.9732 0.2298 -71.7981 661.7775)" class="st6" cx="382.2" cy="376.25" rx="19.23" ry="19.23"/>
				
					<ellipse transform="matrix(0.2298 -0.9732 0.9732 0.2298 -71.7981 661.7775)" class="st12" cx="382.2" cy="376.25" rx="19.23" ry="19.23"/>
			</g>
			<path class="st13" d="M394.33,361.34c-1.75-0.53-3.61-0.81-5.54-0.81c-10.62,0-19.23,8.61-19.23,19.23
				c0,6.02,2.76,11.38,7.09,14.91c1.75,0.53,3.61,0.81,5.54,0.81c10.62,0,19.23-8.61,19.23-19.23
				C401.42,370.23,398.66,364.86,394.33,361.34z"/>
			<path class="st6" d="M363.83,381.95c-20.53,9.66-5.22,17.11,23.71,6.71c26.78-9.63,36.97-21.77,13.05-18.01
				C401.83,375.76,368.28,388.83,363.83,381.95z"/>
		</g>
	</g>
</g>
<g id="Astronaut">
	<g>
		<path class="st14" d="M394.1,187.83c-26.89,18.17-61.7,42.13-71.31,99.81h-2.05c9.35-56.98,42.89-81.57,69.79-99.81H394.1z"/>
		<g>
			<path class="st15" d="M255.02,368.27c-16.97,0-33.81-7.66-41.99-20.19c-5.05-7.74-10.92-23.95,6.56-45.58l1.56,1.26
				c-12.36,15.3-14.65,30.65-6.44,43.23c9.99,15.31,33.6,23.01,53.73,17.53c20.63-5.61,33.15-23.56,34.36-49.23
				c4.13-87.81,50.78-114.85,84.85-134.6c21.16-12.27,36.45-21.14,33.09-39.84c-0.47-2.59-1.5-4.39-3.16-5.48
				c-4.35-2.87-12.85-0.89-22.69,1.41c-19.31,4.5-45.75,10.66-61.5-16.13l1.72-1.01c15.01,25.52,39.58,19.8,59.32,15.2
				c10.29-2.4,19.18-4.47,24.25-1.13c2.14,1.41,3.46,3.64,4.03,6.8c3.61,20.08-13.01,29.72-34.06,41.92
				c-33.66,19.52-79.77,46.25-83.85,132.97c-1.25,26.6-14.31,45.21-35.83,51.06C264.43,367.68,259.72,368.27,255.02,368.27z"/>
			<path class="st16" d="M255.02,368.27c-16.97,0-33.81-7.66-41.99-20.19c-5.05-7.74-10.92-23.95,6.56-45.58l1.56,1.26
				c-12.36,15.3-14.65,30.65-6.44,43.23c9.99,15.31,33.6,23.01,53.73,17.53c20.63-5.61,33.15-23.56,34.36-49.23
				c4.13-87.81,50.78-114.85,84.85-134.6c21.16-12.27,36.45-21.14,33.09-39.84c-0.47-2.59-1.5-4.39-3.16-5.48
				c-4.35-2.87-12.85-0.89-22.69,1.41c-19.31,4.5-45.75,10.66-61.5-16.13l1.72-1.01c15.01,25.52,39.58,19.8,59.32,15.2
				c10.29-2.4,19.18-4.47,24.25-1.13c2.14,1.41,3.46,3.64,4.03,6.8c3.61,20.08-13.01,29.72-34.06,41.92
				c-33.66,19.52-79.77,46.25-83.85,132.97c-1.25,26.6-14.31,45.21-35.83,51.06C264.43,367.68,259.72,368.27,255.02,368.27z"/>
		</g>
		<g>
			<g>
				<path class="st6" d="M312.76,96.95c6.86-0.12,13.58,2.13,13.58,2.13s10.96,18.77,12.3,23.07c-0.46,4.24-7.62,11.19-7.62,11.19
					L312.76,96.95z"/>
				<path class="st12" d="M312.76,96.95c6.86-0.12,13.58,2.13,13.58,2.13s10.96,18.77,12.3,23.07c-0.46,4.24-7.62,11.19-7.62,11.19
					L312.76,96.95z"/>
			</g>
			<g>
				<g>
					<path class="st6" d="M345.34,188.13c-4.14-5.25-8.2-10.59-11.56-16.39c-0.84-1.45-1.64-2.92-2.39-4.42
						c-0.43-0.85-0.84-1.71-1.24-2.57c-0.35-0.75-1.13-1.86-1.2-2.68c-1.2-12.67,3.14-22-1.03-32.17l-16.47,6.44
						c0,0,1.4,18.12,4.6,28.96c1.98,6.73,6.47,12.55,10.8,17.94c1.35,1.69,2.66,3.41,4.01,5.1c1.28,1.6,2.71,3.06,3.99,4.65
						c1.95,2.41,2.59,4.72,1.11,7.56c-0.08,0.15-0.16,0.3-0.25,0.45c-0.42,0.74,1.55,1.58,2.78,0.02c2.04-2.58,1.72-2.42,3.46-4.62
						c1.06-1.34,2.27-2.78,3.32-4.03C346.3,191.16,346.33,189.38,345.34,188.13z"/>
					<path class="st10" d="M345.34,188.13c-4.14-5.25-8.2-10.59-11.56-16.39c-0.84-1.45-1.64-2.92-2.39-4.42
						c-0.43-0.85-0.84-1.71-1.24-2.57c-0.35-0.75-1.13-1.86-1.2-2.68c-1.2-12.67,3.14-22-1.03-32.17l-16.47,6.44
						c0,0,1.4,18.12,4.6,28.96c1.98,6.73,6.47,12.55,10.8,17.94c1.35,1.69,2.66,3.41,4.01,5.1c1.28,1.6,2.71,3.06,3.99,4.65
						c1.95,2.41,2.59,4.72,1.11,7.56c-0.08,0.15-0.16,0.3-0.25,0.45c-0.42,0.74,1.55,1.58,2.78,0.02c2.04-2.58,1.72-2.42,3.46-4.62
						c1.06-1.34,2.27-2.78,3.32-4.03C346.3,191.16,346.33,189.38,345.34,188.13z"/>
				</g>
				<path class="st17" d="M341.31,182.92c-2.21,2.67-6.69,6.12-8.66,7.52c0.43,0.48,0.86,0.97,1.28,1.46c4.07-2.66,7.28-6.1,8.5-7.5
					C342.06,183.91,341.68,183.41,341.31,182.92z"/>
				<path class="st17" d="M345.34,188.13c-0.04-0.05-0.08-0.09-0.12-0.15c-0.69,0.72-1.18,1.88-1.26,3.17
					c-0.07,0.89,0.08,1.71,0.38,2.35c0.33-0.39,0.64-0.77,0.95-1.13C346.31,191.16,346.32,189.39,345.34,188.13z"/>
			</g>
			<g>
				<g>
					<path class="st6" d="M308.84,108.95c-1.72,2.51-3.75,4.98-6.38,7.19c-1.3,1.11-2.79,2.12-4.42,2.98
						c-0.82,0.42-1.69,0.78-2.58,1.08l-0.67,0.22l-0.22,0.07c-0.16,0.05-0.32,0.09-0.48,0.13c-0.3,0.07-0.6,0.11-0.87,0.14
						c-1.08,0.08-1.87-0.07-2.51-0.23c-1.28-0.35-2.13-0.81-2.94-1.26c-0.8-0.46-1.49-0.93-2.15-1.41c-1.3-0.99-2.48-1.99-3.58-3.05
						c-2.21-2.11-4.17-4.3-5.99-6.74c-0.83-1.11-0.6-2.68,0.51-3.51c0.86-0.64,1.99-0.65,2.84-0.11l0.08,0.05
						c2.36,1.5,4.74,3.08,7.06,4.49c1.17,0.69,2.32,1.39,3.45,1.93c0.55,0.28,1.1,0.54,1.59,0.72c0.48,0.19,0.95,0.29,1.08,0.27
						c0.05,0-0.01-0.07-0.38-0.06c-0.09,0-0.22,0.02-0.34,0.04c-0.07,0.01-0.15,0.03-0.22,0.06c-0.07,0.02,0.03-0.02,0.03-0.02
						l0.33-0.17c0.44-0.22,0.86-0.5,1.29-0.79c0.86-0.58,1.67-1.31,2.5-2.12c1.65-1.63,3.23-3.67,4.9-5.79l0.02-0.03
						c1.71-2.17,4.86-2.54,7.03-0.82C309.9,103.83,310.31,106.8,308.84,108.95z"/>
					<path class="st10" d="M308.84,108.95c-1.72,2.51-3.75,4.98-6.38,7.19c-1.3,1.11-2.79,2.12-4.42,2.98
						c-0.82,0.42-1.69,0.78-2.58,1.08l-0.67,0.22l-0.22,0.07c-0.16,0.05-0.32,0.09-0.48,0.13c-0.3,0.07-0.6,0.11-0.87,0.14
						c-1.08,0.08-1.87-0.07-2.51-0.23c-1.28-0.35-2.13-0.81-2.94-1.26c-0.8-0.46-1.49-0.93-2.15-1.41c-1.3-0.99-2.48-1.99-3.58-3.05
						c-2.21-2.11-4.17-4.3-5.99-6.74c-0.83-1.11-0.6-2.68,0.51-3.51c0.86-0.64,1.99-0.65,2.84-0.11l0.08,0.05
						c2.36,1.5,4.74,3.08,7.06,4.49c1.17,0.69,2.32,1.39,3.45,1.93c0.55,0.28,1.1,0.54,1.59,0.72c0.48,0.19,0.95,0.29,1.08,0.27
						c0.05,0-0.01-0.07-0.38-0.06c-0.09,0-0.22,0.02-0.34,0.04c-0.07,0.01-0.15,0.03-0.22,0.06c-0.07,0.02,0.03-0.02,0.03-0.02
						l0.33-0.17c0.44-0.22,0.86-0.5,1.29-0.79c0.86-0.58,1.67-1.31,2.5-2.12c1.65-1.63,3.23-3.67,4.9-5.79l0.02-0.03
						c1.71-2.17,4.86-2.54,7.03-0.82C309.9,103.83,310.31,106.8,308.84,108.95z"/>
				</g>
				<g>
					<path class="st6" d="M272.29,102.42l1.17,1.97c0,0,0.9,2.62,2.69,3.1l4.85-1.57l-0.24-0.41c0,0,0,0,0.01,0
						c-0.62-0.95-0.55-2.77-0.34-4.29c0.22-1.52-0.57-1.57-1.15-1.2c-0.34,0.22-0.57,0.91-0.85,1.66c-0.24-0.33-0.49-0.65-0.78-0.93
						l-1.48-1.48c-0.64-0.64-1.67-0.67-2.34-0.07l-1.2,1.07C272.01,100.81,271.87,101.71,272.29,102.42z"/>
					<path class="st10" d="M272.29,102.42l1.17,1.97c0,0,0.9,2.62,2.69,3.1l4.85-1.57l-0.24-0.41c0,0,0,0,0.01,0
						c-0.62-0.95-0.55-2.77-0.34-4.29c0.22-1.52-0.57-1.57-1.15-1.2c-0.34,0.22-0.57,0.91-0.85,1.66c-0.24-0.33-0.49-0.65-0.78-0.93
						l-1.48-1.48c-0.64-0.64-1.67-0.67-2.34-0.07l-1.2,1.07C272.01,100.81,271.87,101.71,272.29,102.42z"/>
				</g>
			</g>
			<g>
				<path class="st6" d="M317.67,95.22c-4.65,1.13-11.04,3.78-15.35,6.47c-1.53,0.95-2.29,2.76-1.93,4.52
					c1.92,9.44,6.31,22.08,11.05,30.13l22.11-9.15c0.15-3.9-5.22-16.52-10.68-28.72C321.89,96.29,320.01,94.66,317.67,95.22z"/>
				<path class="st18" d="M317.67,95.22c-4.65,1.13-11.04,3.78-15.35,6.47c-1.53,0.95-2.29,2.76-1.93,4.52
					c1.92,9.44,6.31,22.08,11.05,30.13l22.11-9.15c0.15-3.9-5.22-16.52-10.68-28.72C321.89,96.29,320.01,94.66,317.67,95.22z"/>
			</g>
			<path class="st17" d="M326.3,106.21l-4.39-1.47c0.98,2.57,4.53,5.82,7.03,7.73C328.11,110.47,327.22,108.37,326.3,106.21z"/>
			<g>
				<path class="st6" d="M316.22,85.32c-1.82-3.48-5.77-5.23-10.52-4.84c-4,0.33-7.54,4.42-7.12,6.62c0.42,2.21,3.78,3.14,4.39,3.91
					l-2.77,2.01c-1.38,1-1.65,2.95-0.6,4.29c1.17,1.48,2.7,3.03,3.6,4.12c7.66-0.2,13.33-3.12,15.37-5.94
					C317.84,91.92,318.03,88.78,316.22,85.32z"/>
				<path class="st18" d="M316.22,85.32c-1.82-3.48-5.77-5.23-10.52-4.84c-4,0.33-7.54,4.42-7.12,6.62
					c0.42,2.21,3.78,3.14,4.39,3.91l-2.77,2.01c-1.38,1-1.65,2.95-0.6,4.29c1.17,1.48,2.7,3.03,3.6,4.12
					c7.66-0.2,13.33-3.12,15.37-5.94C317.84,91.92,318.03,88.78,316.22,85.32z"/>
			</g>
			<path class="st19" d="M312.46,87.48c1.52,3.9-0.4,8.29-4.3,9.81c-3.9,1.52-8.29-0.4-9.81-4.3c-1.52-3.9,0.4-8.29,4.3-9.81
				C306.55,81.66,310.94,83.58,312.46,87.48z"/>
			<g>
				<g>
					<path class="st6" d="M377.39,177.6c-0.11-3.29-0.25-2.96-0.35-5.76c-0.06-1.7-0.07-3.59-0.08-5.22
						c-0.01-1.59-1.14-2.96-2.7-3.28c-1.33-0.27-2.65-0.52-3.98-0.81c-1.73-0.37-3.43-0.76-5.13-1.26c-1.31-0.38-2.62-0.8-3.9-1.27
						c-1.38-0.5-2.74-1.04-4.09-1.62c-1.58-0.68-3.13-1.4-4.68-2.14c-1.73-0.83-3.44-1.68-5.14-2.55
						c-6.58-10.9-6.72-18.07-13.79-26.5l-15.16,6.86c0,0,11.14,19.76,18.73,28.14c4.37,4.82,11.22,7,17.33,8.57
						c4.41,1.14,8.88,2.01,13.35,2.83c1.74,0.32,3.63,0.44,5.13,1.48c1.18,0.82,1.79,2.1,2.14,3.45c0.07,0.28,0.13,0.56,0.18,0.84
						C375.41,180.22,377.46,179.59,377.39,177.6z"/>
					<path class="st18" d="M377.39,177.6c-0.11-3.29-0.25-2.96-0.35-5.76c-0.06-1.7-0.07-3.59-0.08-5.22
						c-0.01-1.59-1.14-2.96-2.7-3.28c-1.33-0.27-2.65-0.52-3.98-0.81c-1.73-0.37-3.43-0.76-5.13-1.26c-1.31-0.38-2.62-0.8-3.9-1.27
						c-1.38-0.5-2.74-1.04-4.09-1.62c-1.58-0.68-3.13-1.4-4.68-2.14c-1.73-0.83-3.44-1.68-5.14-2.55
						c-6.58-10.9-6.72-18.07-13.79-26.5l-15.16,6.86c0,0,11.14,19.76,18.73,28.14c4.37,4.82,11.22,7,17.33,8.57
						c4.41,1.14,8.88,2.01,13.35,2.83c1.74,0.32,3.63,0.44,5.13,1.48c1.18,0.82,1.79,2.1,2.14,3.45c0.07,0.28,0.13,0.56,0.18,0.84
						C375.41,180.22,377.46,179.59,377.39,177.6z"/>
				</g>
				<path class="st17" d="M369.7,162.4c-0.6-0.13-1.2-0.26-1.81-0.41c0.05,3.45-1.57,9.42-2.17,11.22c0.63,0.12,1.27,0.24,1.9,0.36
					C369.38,168.83,369.66,163.81,369.7,162.4z"/>
				<path class="st17" d="M376.96,166.61c-0.01-1.6-1.13-2.96-2.69-3.28c-0.31-0.06-0.64-0.13-0.95-0.19
					c0.07,0.94,0.65,2.03,1.63,2.9c0.64,0.58,1.37,0.96,2.03,1.14C376.96,166.98,376.96,166.8,376.96,166.61z"/>
			</g>
			<path class="st20" d="M311.05,87.54c0.4,1.52-1.29,3.11-2.65,1.8c-1.1-1.06-2.76-2.85-4.12-3.69c-1.39-0.87,0.46-2.39,2.65-1.8
				C308.97,84.4,310.64,86.02,311.05,87.54z"/>
			<g>
				<path class="st6" d="M311.16,135.86c-0.7,0.26,0.58,1.46,0.58,1.46s13.97-4.79,22.49-9.72c0.07-1.03-0.68-1.58-0.68-1.58
					S323.19,131.43,311.16,135.86z"/>
				<path class="st21" d="M311.16,135.86c-0.7,0.26,0.58,1.46,0.58,1.46s13.97-4.79,22.49-9.72c0.07-1.03-0.68-1.58-0.68-1.58
					S323.19,131.43,311.16,135.86z"/>
			</g>
			<g>
				<g>
					<path class="st6" d="M321.46,94.56c2.76,1.39,5.35,2.87,7.95,4.5c1.29,0.81,2.58,1.65,3.84,2.55c1.28,0.88,2.53,1.81,3.8,2.86
						l0.47,0.39l0.59,0.53c0.42,0.37,0.73,0.71,1.04,1.05c0.32,0.35,0.59,0.69,0.85,1.03c0.27,0.34,0.53,0.68,0.77,1.01
						c0.99,1.33,1.8,2.68,2.59,4.02c1.54,2.72,2.87,5.43,3.97,8.35c0.49,1.3-0.17,2.75-1.47,3.24c-0.98,0.37-2.04,0.09-2.72-0.63
						l-0.05-0.05c-2.01-2.13-3.94-4.37-5.88-6.46c-1.9-2.08-3.91-4.21-5.54-5.14c-2.27-1.42-4.8-2.82-7.31-4.21l-7.56-4.2
						l-0.02-0.01c-2.42-1.34-3.29-4.38-1.95-6.8C316.14,94.25,319.08,93.36,321.46,94.56z"/>
					<path class="st18" d="M321.46,94.56c2.76,1.39,5.35,2.87,7.95,4.5c1.29,0.81,2.58,1.65,3.84,2.55c1.28,0.88,2.53,1.81,3.8,2.86
						l0.47,0.39l0.59,0.53c0.42,0.37,0.73,0.71,1.04,1.05c0.32,0.35,0.59,0.69,0.85,1.03c0.27,0.34,0.53,0.68,0.77,1.01
						c0.99,1.33,1.8,2.68,2.59,4.02c1.54,2.72,2.87,5.43,3.97,8.35c0.49,1.3-0.17,2.75-1.47,3.24c-0.98,0.37-2.04,0.09-2.72-0.63
						l-0.05-0.05c-2.01-2.13-3.94-4.37-5.88-6.46c-1.9-2.08-3.91-4.21-5.54-5.14c-2.27-1.42-4.8-2.82-7.31-4.21l-7.56-4.2
						l-0.02-0.01c-2.42-1.34-3.29-4.38-1.95-6.8C316.14,94.25,319.08,93.36,321.46,94.56z"/>
				</g>
				<g>
					<path class="st6" d="M349.73,125.74l-0.85-2.13c0,0-0.47-2.72-2.17-3.48l-5.04,0.79l0.18,0.44c0,0,0,0-0.01,0
						c0.47,1.03,0.11,2.83-0.34,4.29c-0.45,1.47,0.32,1.64,0.95,1.36c0.37-0.16,0.71-0.81,1.1-1.51c0.18,0.36,0.39,0.72,0.63,1.05
						l1.23,1.69c0.53,0.73,1.54,0.92,2.3,0.43l1.35-0.87C349.76,127.37,350.04,126.5,349.73,125.74z"/>
					<path class="st18" d="M349.73,125.74l-0.85-2.13c0,0-0.47-2.72-2.17-3.48l-5.04,0.79l0.18,0.44c0,0,0,0-0.01,0
						c0.47,1.03,0.11,2.83-0.34,4.29c-0.45,1.47,0.32,1.64,0.95,1.36c0.37-0.16,0.71-0.81,1.1-1.51c0.18,0.36,0.39,0.72,0.63,1.05
						l1.23,1.69c0.53,0.73,1.54,0.92,2.3,0.43l1.35-0.87C349.76,127.37,350.04,126.5,349.73,125.74z"/>
				</g>
			</g>
			<g>
				<g>
					<path class="st17" d="M317.24,106.06l-1.22,0.1l-7.49,18.08c0.44,0.03,0.84-0.01,1.22-0.1c0,0,9.76-3.64,12.71-4.97
						C320.48,115.05,317.24,106.06,317.24,106.06z"/>
					<path class="st20" d="M303.57,110.8c0.42,3.26,2.86,10.18,4.96,13.44c3.66-1.26,9.76-3.64,12.71-4.97
						c-1.99-4.12-4.08-9.8-5.23-13.11C312.87,106.37,306.01,108.95,303.57,110.8z"/>
				</g>
				<path class="st17" d="M311,114.71c-0.41,1.36-1.85,2.14-3.21,1.73s-2.14-1.85-1.73-3.21c0.41-1.36,1.85-2.14,3.21-1.73
					C310.63,111.91,311.41,113.35,311,114.71z"/>
				<path class="st22" d="M312.91,111.27c-0.13,0.45-0.6,0.7-1.05,0.57c-0.45-0.13-0.7-0.6-0.57-1.05c0.13-0.45,0.61-0.7,1.05-0.57
					C312.79,110.35,313.05,110.82,312.91,111.27z"/>
				<path class="st22" d="M315.15,110.4c-0.13,0.45-0.6,0.7-1.05,0.57c-0.45-0.13-0.7-0.6-0.57-1.05c0.13-0.45,0.6-0.7,1.05-0.57
					C315.02,109.48,315.28,109.95,315.15,110.4z"/>
				<polygon class="st23" points="318.29,118.19 309.04,121.84 308.49,120.02 317.73,116.37 				"/>
			</g>
		</g>
	</g>
</g>
<g id="Rocket">
	<g>
		<path class="st14" d="M267.26,257.17c-0.2,7.54-0.76,13.33-1.68,17.35c-1.18,5.14-3.01,8.9-5.5,11.28
			c-2.48,2.38-5.42,3.57-8.81,3.57c-5.14,0-9.07-2.8-11.77-8.41c-0.44-0.91-0.84-1.95-1.21-3.11c-5.71,4.91-11.03,10.27-15.92,16.03
			l-5.31,6.26c2.87,2.91,6.13,5.3,9.77,7.19c6.23,3.22,14.4,4.84,24.52,4.84c1.78,0,3.5-0.05,5.17-0.15
			c6.12-9.06,11.19-18.8,15.1-29.02l14.85-38.72L267.26,257.17z"/>
		<g>
			<g>
				<path class="st24" d="M133.39,309.96c5.6,5.6,17.5,17.5,17.5,17.5l49.01-46.17C183.04,274.88,150.16,293.19,133.39,309.96z"/>
				<path class="st24" d="M194.42,370.99c-5.6-5.6-17.5-17.5-17.5-17.5l46.17-49.01C229.5,321.35,211.19,354.22,194.42,370.99z"/>
				<g>
					<path class="st25" d="M261.4,260.7l19.09-36.81l-36.81,19.09c-11.83,6.13-22.74,13.88-32.44,23.01l-62.75,59.07l30.83,30.83
						l59.07-62.75C247.52,283.44,255.27,272.52,261.4,260.7z"/>
					<path class="st26" d="M261.4,260.7l19.09-36.81l-36.81,19.09c-11.83,6.13-22.74,13.88-32.44,23.01l-62.75,59.07l30.83,30.83
						l59.07-62.75C247.52,283.44,255.27,272.52,261.4,260.7z"/>
				</g>
				<circle class="st20" cx="222.2" cy="282.18" r="12.9"/>
				<circle class="st6" cx="222.2" cy="282.18" r="8.29"/>
				<polygon class="st17" points="189.75,344.82 159.56,314.63 184.28,291.37 213.01,320.1 				"/>
				<g>
					<path class="st8" d="M140.22,337.62c-22.6,1.84-30.09,16.31-32.65,35.54c-1.3,9.81-1.88,19.73-10.12,25.48
						c-2.29,1.59-1.15,5.15,1.63,5.06c30.34-0.95,44.49-15.8,46.27-22.02c-0.61,3.93-1.5,7.04-2.49,9.47
						c-1.02,2.51,1.74,4.83,4.03,3.39c8.52-5.34,19.2-15.15,19.91-31.08C160.51,354.6,140.22,337.62,140.22,337.62z"/>
					<path class="st27" d="M140.22,337.62c-22.6,1.84-30.09,16.31-32.65,35.54c-1.3,9.81-1.88,19.73-10.12,25.48
						c-2.29,1.59-1.15,5.15,1.63,5.06c30.34-0.95,44.49-15.8,46.27-22.02c-0.61,3.93-1.5,7.04-2.49,9.47
						c-1.02,2.51,1.74,4.83,4.03,3.39c8.52-5.34,19.2-15.15,19.91-31.08C160.51,354.6,140.22,337.62,140.22,337.62z"/>
				</g>
				<polygon class="st24" points="170.28,370.3 134.08,334.1 153.36,329.93 174.45,351.02 				"/>
			</g>
		</g>
	</g>
</g>
</svg>
